<?xml version="1.0" encoding="UTF-8"?>
<svg id="Layer_1" data-name="Layer 1" xmlns="http://www.w3.org/2000/svg" viewBox="0 0 1102.03 1176.18">
  <path d="M671.5.31c.57.31,1.27.79,1.99,1.2,1.14.64,1.71,1.96,1.36,3.22l-119.89,440.71c-.55,2.02,1.2,3.91,3.26,3.53h0c1.06-.2,1.91-.98,2.2-2.01,20.34-72.56,45.38-153.06,92.5-212.86,19.14-24.28,61.15-63.8,94.69-43.1,37.01,22.85,9.97,82.61-8.29,109.51-26.57,39.14-73.29,60.09-49.41,113.99.03.06.06.13.09.19l100.69,192.78c.1.19.18.39.24.6,2.14,8.04-3.49,9.75-10.14,9.8-8.79.07-58.7-.2-74.91-.62-2.5-.07-4.74-1.51-5.87-3.74-20.59-40.9-42.83-76.84-63.33-117.66-11.96-23.82-23.15-40.72-20.91-68.99,3.96-49.93,74.05-98.39,88.87-151.02,5.13-18.2-1.25-40.41-22.84-26.85-32.02,20.11-68.84,111.4-82.09,147.81-25.8,70.87-43.71,144.45-58.76,218.34-.11.52-.34,1.01-.72,1.38-1.44,1.42-3.42,1.38-5.35,1.34-16.59-.36-71.58-.15-90.16-.01-3.75.03-6.47-1.09-8.14-4.45-.3-.6-.38-1.3-.22-1.96L584.24,2.17C584.55.89,585.69,0,586.99,0h83.22c.45,0,.89.1,1.29.31Z"/>
  <path d="M337.86,1061.57h63.97v38.98c0,35.35-37.77,65.42-69.9,72.04-64.03,13.2-129.37-9.21-134.11-81.94-2.46-37.83-4.81-147.63,3.78-180.33,20.97-79.81,163.73-82.62,193.19-10.65,1.68,4.1,7.04,19.73,7.04,22.95v103.96l-3,3h-131.95l-3,3v61.98c0,2.01,4.77,13.17,6.33,15.66,10.35,16.55,39.29,18.09,53.69,6.37,17.6-14.34,9.37-35.38,13.95-55.02ZM265.7,980.8c2.44,3.1,5.69,2.59,9.07,2.92,8.17.79,60.13,2.89,60.61-2.59.67-7.6.58-14.86.49-20.54-.33-20.32,4.54-47.76-18.61-57.35-25.91-10.73-49.88,1.32-53.16,29.6"/>
  <path d="M567.77,1173.53v-236.9c0-1.34-3.09-13.95-3.89-16.11-9.69-26.34-51.3-24.82-65.02-2.82-1.22,1.95-5.07,11.5-5.07,12.93v239.9l-3,3h-59.98l-3-3v-297.88c0-.87,7.35-13.36,8.99-15,3.58-3.59,11.08-7.1,16.17-7.82,23.48-3.33,101.42-2.87,125.26.34,32.36,4.36,55.49,39.05,55.49,70.45v249.9l-3,3h-62.97Z"/>
  <path d="M971.16,850.21c53.17-5.99,112.01,6,125.46,65.35,7.48,32.99,5.89,138.25,3,175.07-5.13,65.42-56.91,89.3-117,84.87-47.59-3.51-85.5-29.07-90.74-79.19-4.27-40.83-3.57-122.24-.32-163.76,3.55-45.29,34.39-77.25,79.59-82.34ZM993.26,902.13c-19.27.99-32.34,11.57-35.13,31.02-6.75,47.1-2.3,106.68-.53,155.43,1.58,43.75,72.96,46.16,75.76,1.76,2.95-46.74,1.9-103.93.23-155.72-2.99-21.85-18.47-33.61-40.33-32.49Z"/>
  <path d="M865.65,966.9h-60.98l-3-3v-35.99c0-1.53-4.33-12.24-5.57-14.42-15.7-27.46-73.58-18.71-72.48,18.34-2.08,52.17-2.45,107.93,0,160.1,2.04,43.51,74.4,43.74,78.13,3.99.71-7.53,1.19-39.96-.48-45.66-3.4-11.59-26.21-5.17-37.78-8.21-5.53-1.45-7.13-44.62,3.19-41.18h95.96l3,3v121.95c0,17.39-32.03,42.13-48.39,45.57-23.83,5.02-94.47,3.25-116.9-6.24-31.48-13.31-40.73-43.26-42.73-75.23-2.79-44.69-3.48-115.78.13-160,6.63-81.18,99.7-98.46,162.62-70.72,19.09,8.42,45.27,34.87,45.27,56.69v50.98Z"/>
  <path d="M126.61,852.85c.81-1.93,2.7-3.19,4.8-3.19h57.52c4.82,0,1.98,8.83,1.09,11.08-17.31,43.7-45.87,93.69-61.04,138.54-.06.17-.11.35-.15.52-3.1,12.84.17,18.47,4.19,29.72,15.8,44.12,40.12,88.28,57.33,132.27l1.09,2.49c1.37,3.42.34,11.25-2.51,11.25h-54.63c-2.04,0-3.89-1.19-4.74-3.04-16.25-35.61-31.89-72.45-46.52-108.98-7.1-17.74-22.36-45.25-18.23-63.52.07-.31.17-.6.29-.89l61.51-146.25Z"/>
  <polygon points="3 849.66 54.98 849.66 57.98 852.66 57.98 1172.53 54.98 1175.53 3 1175.53 0 1172.53 0 852.66 3 849.66"/>
  <path d="M351.33,512.27c93.58-15.81,92.69,127.25,2,113-59.71-9.38-59.32-103.32-2-113Z"/>
</svg>