<?xml version="1.0" encoding="UTF-8"?>
<svg id="Layer_1" xmlns="http://www.w3.org/2000/svg" version="1.1" viewBox="690 180 540 700">
  <!-- Generator: Adobe Illustrator 29.1.0, SVG Export Plug-In . SVG Version: 2.1.0 Build 142)  -->
  <path fill="#e75c3e" d="M1202.31,838.67c0,.54-.84,3.1-1.2,3.51,0,0-2.18,2.55-5.25,2.44l-82.75-.96c-.84,0-1.61-.48-2.01-1.22l-75.3-139.85c-32.81-68.6,16.55-99.71,50.74-150.3,10.74-15.89,31.5-47.03,29.76-66.21-1.55-17.07-16.29-16.23-27.46-7.48-26.36,20.65-52.16,78.72-64.99,110.01-23.79,58.04-42.39,121.06-56.85,182.15-5.12,21.63-8.45,44.88-13.96,66.04-1.47,5.64-2.11,7.78-8.18,7.82-29.76.23-62.36.02-93.1,0-2.83.12-5.95-3.41-6.3-6.13-.03-.25,0-.5.06-.75l145.06-606.4c.9-4.05,3.58-4.84,7.19-4.81,26.86.19,55.54-.29,83.1,0,6.2-.05,5.78,2.91,5.52,6.25-.01.16-.04.32-.09.47l-121.16,440.34c-.41,1.49.73,2.96,2.28,2.93h.04c1.04-.02,1.94-.73,2.19-1.74,11.42-44.61,25.64-88.85,44.49-130.87,20.7-46.16,71.2-140.61,132.44-131.08,15.7,2.44,28.05,20.41,29.62,35.38,3.98,37.96-21.27,74.76-44.36,102.39-23.16,27.72-50.2,43.38-33.42,85.22.03.08.07.15.1.23,0,0,77.65,149.27,103.54,199.03"/>
  <path fill="#e75c3e" d="M776.31,853.57c-80.41-1.14-77.35-122.07,4.54-116.04,71.49,5.26,67.57,114.49-4.54,116.04Z"/>
</svg>
