<?xml version="1.0" encoding="UTF-8"?>
<svg id="Capa_1" data-name="Capa 1" xmlns="http://www.w3.org/2000/svg" viewBox="140 232 315 130">
  <defs>
    <style>
      .cls-1 {
        fill: #e75c3e;
        stroke-width: 0px;
      }
    </style>
  </defs>
  <path class="cls-1" d="M173.93,235.73h16.56c.76,0,1.37.61,1.37,1.37l-24.45,88.65h.87c1.96-7.62,4.22-14.64,6.76-21.05,2.54-6.41,5.29-11.98,8.23-16.72,2.95-4.74,6.01-8.43,9.18-11.09,3.18-2.66,6.44-3.99,9.79-3.99,2.31,0,4.16.87,5.54,2.6,1.39,1.73,2.08,3.76,2.08,6.06,0,4.39-1.65,8.98-4.94,13.78-2.23,3.25-5.11,6.69-8.63,10.33-3.22,3.33-3.93,8.35-1.8,12.47l20.29,39.19c.52,1.01-.21,2.21-1.35,2.21h-15.66c-.56,0-1.07-.31-1.34-.8l-14.93-28c-3.24-6.07-2.5-13.49,1.87-18.81,1.36-1.66,2.6-3.21,3.71-4.63,2.83-3.64,5.02-6.73,6.58-9.27,1.56-2.54,2.63-4.53,3.21-5.98.58-1.44.87-2.63.87-3.55,0-2.31-.87-3.47-2.6-3.47s-3.87,1.73-6.41,5.2c-2.54,3.47-5.23,8.43-8.06,14.9-2.83,6.47-5.63,14.3-8.4,23.48-2.67,8.85-5.08,18.75-7.21,29.7-.14.71-.76,1.23-1.49,1.23h-18.47c-.84,0-1.52-.68-1.52-1.52l28.97-120.92c0-.76.61-1.37,1.37-1.37Z"/>
  <path class="cls-1" d="M212.51,335.01v-37.76c0-16.33,10.5-24.53,27.33-24.53s27.12,8.13,27.19,24.53l.07,22.18c0,.82-.66,1.49-1.48,1.49h-34c-.66,0-1.19.53-1.19,1.19v12.91c0,6.91,3.02,10.65,9.42,10.65s9.28-3.74,9.35-10.65l.06-4.58c0-.81.67-1.47,1.48-1.47h14.87c.83,0,1.49.68,1.48,1.5l-.06,4.54c-.22,16.4-10.5,24.53-27.19,24.53s-27.33-8.13-27.33-24.53ZM248.07,308.18c.66,0,1.2-.54,1.19-1.2l-.07-9.73c-.07-6.98-3.09-10.65-9.35-10.65s-9.42,3.74-9.42,10.65v9.74c0,.66.53,1.19,1.19,1.19h16.45Z"/>
  <path class="cls-1" d="M308.54,272.72c13.05,0,19.76,8.02,19.76,23.4v61.19c0,1.08-.87,1.95-1.95,1.95h-14.26c-1.08,0-1.95-.87-1.95-1.95v-60.15c0-6.42-2.55-10.21-8.75-10.21-1.49,0-2.86.2-4.12.59-3.52,1.11-5.87,4.44-5.87,8.14v61.63c0,1.08-.87,1.95-1.95,1.95h-14.19c-1.08,0-1.95-.87-1.95-1.95v-75.95c0-4.73,3.82-8.56,8.55-8.57l26.67-.07Z"/>
  <path class="cls-1" d="M396.02,333.57v-34.89c0-17.62,10.72-25.97,27.91-25.97s27.77,8.34,27.77,25.97v34.89c0,17.7-10.64,25.97-27.77,25.97s-27.91-8.27-27.91-25.97ZM423.93,345.01c6.76,0,9.93-3.81,9.93-11.44v-34.89c0-7.62-3.16-11.44-9.93-11.44s-10,3.81-10,11.44v34.89c0,7.63,3.24,11.44,10,11.44Z"/>
  <path class="cls-1" d="M359.12,359.27c-16.72,0-24.8-7.44-24.8-23.7v-39.16c0-16.2,11.11-23.59,27.84-23.59s27.83,7.38,27.83,23.59v6.54c0,.97-.88,1.76-1.98,1.76h-13.68c-1.09,0-1.98-.79-1.98-1.76v-5.9c0-7.27-3.36-10.84-10.2-10.84s-10.21,3.58-10.21,11.42v37.3c0,7.33,3.36,10.9,10.6,10.9,1.09,0,2.12-.07,3.09-.19,3.83-.5,6.66-3.45,6.66-6.91v-11.83c0-.97-.88-1.76-1.98-1.76h-6.38c-1.09,0-1.98-.79-1.98-1.76v-8.52c0-.97.88-1.76,1.98-1.76h24.08c1.09,0,1.98.79,1.98,1.76v27.9c0,9.13-8.29,16.53-18.51,16.53h-12.36Z"/>
</svg>